<svg width="606" height="581" viewBox="0 0 606 581" fill="none" xmlns="http://www.w3.org/2000/svg">
<path fill-rule="evenodd" clip-rule="evenodd" d="M322.265 16.0606C399.208 23.3436 466.682 15.4387 543.389 43.5148C552.287 46.7719 560.261 52.3516 566.121 59.799C627.791 138.185 587.207 207.618 568.509 287.681C550.101 366.501 523.953 432.809 455.313 475.703C404.419 507.508 354.62 533.534 295.151 541.604C216.403 552.289 126.082 580.738 66.1893 528.504C3.98354 474.252 12.2513 378.686 13.7221 296.159C15.2662 209.519 51.7217 152.348 115.881 94.1035C180.138 35.7705 235.866 7.88264 322.265 16.0606Z" fill="url(#paint0_linear)"/>
<defs>
<linearGradient id="paint0_linear" x1="317.091" y1="15.492" x2="288.693" y2="565.92" gradientUnits="userSpaceOnUse">
<stop stop-color="#FFF500"/>
<stop offset="1" stop-color="#FFF96B" stop-opacity="0.17"/>
</linearGradient>
</defs>
</svg>
