<svg width="46" height="48" viewBox="0 0 46 48" fill="none" xmlns="http://www.w3.org/2000/svg">
<path d="M14.5609 42.2435L13.7874 42.8288C13.7031 42.8909 13.5947 42.9226 13.4845 42.9173C13.4295 42.9142 13.3758 42.9016 13.3265 42.8804C13.2772 42.8591 13.2332 42.8295 13.1971 42.7934C13.161 42.7572 13.1335 42.7152 13.1162 42.6697C13.0989 42.6242 13.0921 42.5762 13.0962 42.5283C13.1055 42.4326 13.1567 42.3435 13.2391 42.2795L14.0127 41.6943C14.0539 41.6624 14.102 41.638 14.1542 41.6225C14.2064 41.607 14.2616 41.6007 14.3165 41.604C14.3715 41.6073 14.4252 41.6201 14.4743 41.6417C14.5235 41.6633 14.5672 41.6932 14.6028 41.7297C14.6391 41.7656 14.6668 41.8073 14.6844 41.8526C14.7021 41.8978 14.7093 41.9456 14.7057 41.9933C14.6958 42.0896 14.644 42.1791 14.5609 42.2435Z" fill="#FAFAFA"/>
<path d="M12.5778 32.5796C13.1183 32.6763 13.6667 32.6892 14.2135 32.618C13.6729 32.5212 13.1246 32.5084 12.5778 32.5796Z" fill="#455A64"/>
<path d="M8.05776 15.9116C8.40428 15.1728 8.11019 12.4302 8.78874 12.4672C9.65582 12.5127 9.15778 15.5642 9.13666 15.8441C9.11555 16.1239 9.5695 16.1427 9.57301 15.8941C9.57863 15.5372 9.72068 12.0247 10.5888 12.1391C11.0677 12.2019 10.9437 12.963 10.9437 12.963C10.9437 12.963 10.39 16.4519 10.7985 16.4943C11.207 16.5368 11.5202 14.5003 11.6121 13.7826C11.7016 13.0956 12.0555 12.8419 12.3996 13.0986C12.7438 13.3553 12.5018 15.4224 12.4254 16.1132C12.349 16.804 12.1014 18.6937 13.0913 17.8272C14.0812 16.9608 15.1998 16.6117 15.581 16.7008C15.9623 16.7899 15.9359 17.2787 15.5313 17.4137C15.2043 17.5226 14.7188 17.8502 14.3661 18.1099C14.0908 18.3357 13.8456 18.5879 13.635 18.8618C13.3491 19.2052 13.1306 19.5877 12.9885 19.9937C12.8713 20.3126 12.678 20.6063 12.4213 20.8552C12.1646 21.1041 11.8503 21.3025 11.4995 21.4373L11.4381 22.7249L7.24012 22.1471L7.35638 19.7121C7.46433 17.8519 7.19455 16.5793 7.0612 15.4614C6.84639 13.6782 7.11072 13.6402 7.35151 13.6651C7.87676 13.7132 7.71778 16.6317 8.05776 15.9116Z" fill="#B78876"/>
<path d="M7.84265 18.3209C8.03812 18.364 8.23037 18.4172 8.41835 18.4803C8.8617 18.652 9.22876 18.9435 9.46508 19.3115C9.53552 19.4237 9.59247 19.542 9.63503 19.6644L9.6559 19.7214L9.71107 19.6862C10.0238 19.4884 10.3716 19.3364 10.7405 19.2363C11.017 19.1605 11.1911 19.1392 11.1888 19.1259C11.0309 19.123 10.8735 19.1426 10.7227 19.1839C10.3387 19.2689 9.9761 19.4158 9.65398 19.617L9.72991 19.6403C9.68673 19.5116 9.62797 19.3873 9.55462 19.2695C9.41929 19.0593 9.2403 18.8727 9.02665 18.7193C8.85194 18.5954 8.65631 18.4955 8.44652 18.4231C8.30549 18.3751 8.15831 18.3419 8.00806 18.3242C7.95346 18.3159 7.8977 18.3148 7.84265 18.3209Z" fill="#AA6550"/>
<path d="M8.24663 20.9648C8.56084 21.1315 8.90742 21.2392 9.26732 21.2819C9.62165 21.3539 9.98849 21.3615 10.3481 21.3043C10.35 21.2757 9.86676 21.2837 9.28711 21.1874C8.70746 21.091 8.25686 20.9382 8.24663 20.9648Z" fill="#AA6550"/>
<path d="M19.7329 21.7871C19.7329 21.7871 17.4491 22.6363 16.1744 23.9814C14.8996 25.3266 11.0403 29.5033 11.0403 29.5033L12.0838 22.8725L6.72559 21.9324C6.72559 21.9324 4.60553 28.5462 4.04774 30.8437C3.52707 32.9943 3.49636 35.1394 5.83019 36.452C8.58399 38.0008 11.9899 36.3416 13.13 35.7025C14.5458 34.9103 17.1444 33.6324 17.1444 33.6324L19.7329 21.7871Z" fill="#E0E0E0"/>
<path d="M22.7569 21.0103L24.3992 19.5917L31.0937 19.5392L31.8594 20.8295L28.5086 33.6193L28.5321 46.7443L19.8556 46.2221L22.7569 21.0103Z" fill="#F9EABA"/>
<g opacity="0.3">
<path opacity="0.3" d="M28.5238 43.6038C28.3191 43.3739 27.9769 43.0524 27.642 43.0286C25.2399 42.8531 22.8061 42.5072 20.4024 42.3316L19.8527 46.285L21.0813 45.8593C21.1984 45.4218 21.3458 44.8807 21.829 44.7157C22.103 44.6193 22.4039 44.6783 22.6809 44.7434C23.5336 44.9368 24.373 45.1887 25.252 45.2845C26.131 45.3802 27.07 45.3164 27.8621 44.9252C28.1422 44.801 28.3781 44.6077 28.5402 44.3696C28.6198 44.2506 28.6606 44.1155 28.6577 43.9799C28.6548 43.8443 28.6084 43.7138 28.5238 43.6038Z" fill="black"/>
</g>
<path d="M24.2102 19.5972L19.7712 21.8036L18.6705 24.3831L17.183 32.5386L17.4897 40.9908L15.4601 46.0157L19.7312 46.2636L19.8938 44.2442L21.4373 30.0524L22.5762 21.021L24.2102 19.5972Z" fill="#E0E0E0"/>
<path d="M20.9573 31.9906C20.9334 31.9556 20.9122 31.9191 20.8938 31.8815C20.853 31.803 20.796 31.6957 20.7261 31.5598C20.6562 31.4239 20.5932 31.2398 20.5068 31.034C20.4677 30.9305 20.4361 30.8171 20.3982 30.6976C20.3604 30.578 20.318 30.4523 20.2895 30.317C20.005 29.2437 19.8747 27.709 20.0468 26.0307C20.0562 25.9003 20.0754 25.7718 20.0945 25.6448L20.0961 25.6228L20.1198 25.6152L20.809 25.3984L20.7947 25.4595L20.1594 24.9495L20.1452 24.9385L20.1463 24.9238C20.1817 24.3457 20.3264 23.7762 20.5743 23.2393C20.7754 22.7508 20.9929 22.3323 21.1802 21.9888C21.3675 21.6452 21.5295 21.3769 21.6438 21.1944C21.7001 21.1031 21.7449 21.0347 21.7764 20.9878C21.7913 20.9634 21.8085 20.9401 21.8279 20.9183C21.8175 20.9441 21.8046 20.969 21.7893 20.9929L21.6662 21.2058C21.56 21.3902 21.4061 21.6619 21.2253 22.0072C21.0446 22.3526 20.8385 22.7731 20.6375 23.2601C20.3983 23.7908 20.2593 24.3523 20.2261 24.9219L20.213 24.8963L20.8499 25.4064L20.9001 25.4472L20.8356 25.4674L20.148 25.6843L20.1751 25.6548C20.1562 25.7788 20.142 25.9075 20.1277 26.0362C19.9562 27.7072 20.0753 29.2355 20.3446 30.3125C20.3714 30.4476 20.4121 30.5732 20.4467 30.6926C20.4812 30.8121 20.5112 30.9253 20.5486 31.0287C20.6301 31.2343 20.6867 31.4151 20.7545 31.5568C20.8223 31.6985 20.8696 31.8024 20.907 31.8822C20.9271 31.9171 20.9439 31.9533 20.9573 31.9906Z" fill="#263238"/>
<path d="M17.5503 37.1703C17.5378 37.1333 17.5279 37.0955 17.5205 37.0574C17.5021 36.9773 17.4788 36.869 17.4488 36.7341C17.4188 36.5991 17.3833 36.4198 17.351 36.2185C17.3188 36.0173 17.2748 35.7877 17.2445 35.5321C17.2142 35.2766 17.1736 34.9971 17.1499 34.6963C17.1261 34.3954 17.1039 34.0726 17.0861 33.7338C17.061 33.055 17.0645 32.3069 17.1182 31.5225C17.1719 30.7382 17.2774 29.9956 17.3965 29.3286C17.4638 28.9931 17.5232 28.6736 17.5982 28.3767C17.6731 28.0798 17.7381 27.8046 17.8082 27.553C17.8783 27.3015 17.9499 27.078 18.0112 26.8805C18.0725 26.6831 18.1302 26.5134 18.1806 26.3757C18.231 26.2381 18.2686 26.1382 18.2978 26.06C18.3086 26.0225 18.3243 25.9861 18.3445 25.9516C18.3373 25.9894 18.3273 26.0268 18.3146 26.0636C18.2887 26.1434 18.2557 26.2508 18.2125 26.3844C18.1692 26.5179 18.1129 26.692 18.0566 26.8912C18.0003 27.0903 17.9287 27.3138 17.867 27.5657C17.8054 27.8175 17.7304 28.0909 17.6674 28.3883C17.6043 28.6857 17.5383 29.002 17.4743 29.3376C17.3601 30.0092 17.2598 30.7505 17.2029 31.5318C17.1459 32.3131 17.1444 33.0584 17.1645 33.7354C17.1806 34.0742 17.191 34.3951 17.2216 34.6962C17.2521 34.9973 17.274 35.2761 17.3044 35.5301C17.3347 35.7842 17.3701 36.015 17.3973 36.216C17.4245 36.417 17.4552 36.5917 17.4813 36.7339C17.5074 36.8761 17.5225 36.9781 17.5374 37.0596C17.5461 37.096 17.5504 37.1331 17.5503 37.1703Z" fill="#263238"/>
<path d="M18.1287 44.1102C18.0734 44.227 18.0013 44.3372 17.9142 44.4382C17.7187 44.6906 17.5003 44.929 17.2609 45.1508C17.0208 45.3728 16.7603 45.5772 16.4819 45.7621C16.3712 45.8441 16.2489 45.9134 16.118 45.9683C16.2208 45.8801 16.33 45.7977 16.4449 45.7218C16.7091 45.5271 16.961 45.3201 17.1996 45.1017C17.4361 44.8825 17.6581 44.6516 17.8645 44.4103C17.9449 44.3053 18.0332 44.2051 18.1287 44.1102Z" fill="#263238"/>
<g opacity="0.3">
<path opacity="0.3" d="M20.9097 37.0935C21.3538 36.9265 21.8531 37.0822 22.2787 37.2836C22.7043 37.485 23.1126 37.7401 23.5857 37.7798C24.2281 37.8396 25.1658 37.6981 25.5634 37.2149C26.0037 36.6599 26.3551 36.0479 26.606 35.3987C27.3866 33.2318 27.7396 31.2989 28.5203 29.1305C28.9454 27.9519 29.4679 26.5958 30.0824 25.4873C30.677 24.4163 31.2456 23.3035 31.7461 22.1916C31.366 24.7791 30.9834 27.3868 30.2448 29.9205C29.7682 31.5475 29.1477 33.1364 28.715 34.7718C28.3448 36.1726 28.1152 37.6011 27.8874 39.0269L26.2531 40.5446L22.2931 40.2517L20.5351 37.5526L20.9097 37.0935Z" fill="black"/>
</g>
<path d="M37.7834 22.6193C38.5727 22.9442 39.2585 23.434 39.7804 24.0456C40.3024 24.6571 40.6446 25.3718 40.777 26.1267C41.6424 31.0771 43.276 37.6899 43.1392 39.7832C42.9659 42.4484 41.4876 44.1904 39.724 44.421C38.3291 44.6024 25.9346 43.2466 25.9346 43.2466L25.7151 38.6637L35.8671 38.4678L35.0363 31.6316L37.1635 22.3633L37.7834 22.6193Z" fill="#E0E0E0"/>
<path d="M37.0682 22.3307L34.39 21.1654L31.3603 19.4649L31.3242 19.545C31.6373 20.1073 31.9377 21.1288 31.7562 21.7365L28.4634 32.7967L28.3705 41.0189L28.7197 46.7184L36.6566 47.1935L34.2496 41.0006L36.5515 29.7782L37.0682 22.3307Z" fill="#E0E0E0"/>
<path d="M35.0195 30.9337C35.0293 30.9581 35.0352 30.9837 35.0369 31.0097C35.044 31.0689 35.0551 31.1416 35.0682 31.2305C35.0944 31.432 35.13 31.706 35.1726 32.0408C35.2559 32.7351 35.367 33.6767 35.492 34.7175C35.6171 35.7583 35.7115 36.7018 35.7865 37.3972C35.8192 37.7329 35.8465 38.0079 35.8676 38.2106L35.884 38.4321C35.8868 38.458 35.8849 38.4843 35.8782 38.5097C35.8704 38.4844 35.8652 38.4585 35.8626 38.4324C35.8521 38.3744 35.8426 38.3018 35.8279 38.2128C35.8017 38.0113 35.7661 37.7373 35.7235 37.4025C35.6361 36.7182 35.5154 35.7732 35.4008 34.7256C35.2861 33.678 35.177 32.7322 35.1063 32.0459C35.0736 31.7103 35.0464 31.4352 35.0269 31.2326C35.0204 31.1426 35.0159 31.0703 35.0121 31.0112C35.012 30.9852 35.0145 30.9593 35.0195 30.9337Z" fill="#263238"/>
<path d="M32.6702 20.3407C32.6702 20.3407 32.6695 20.3495 32.6797 20.3677C32.6898 20.386 32.6906 20.4184 32.6996 20.4512C32.7137 20.5255 32.7417 20.633 32.7621 20.7753C32.8295 21.1792 32.8687 21.5865 32.8794 21.9949C32.8961 22.6105 32.8663 23.2265 32.7902 23.8388C32.7101 24.5367 32.5667 25.3059 32.3853 26.1184L32.3833 26.1447L32.3554 26.1431L31.444 26.2366L31.479 26.1887C31.5205 26.3146 31.5644 26.4509 31.595 26.5894C31.7741 27.5014 31.6658 28.4404 31.2822 29.3022C30.9757 30.0011 30.5682 30.6616 30.0699 31.2669C29.6537 31.7863 29.2816 32.1834 29.0261 32.4595L28.728 32.7727L28.6492 32.8534C28.6314 32.87 28.6208 32.8796 28.6193 32.8781C28.6265 32.8678 28.6344 32.858 28.643 32.8486C28.6613 32.8247 28.6865 32.7982 28.7156 32.7632L29.0011 32.4404C29.2487 32.1609 29.6129 31.759 30.0228 31.2362C30.5108 30.6313 30.9102 29.9735 31.2114 29.2789C31.5854 28.428 31.6898 27.5026 31.5131 26.6037C31.4839 26.4683 31.4414 26.3349 31.4013 26.2121L31.3865 26.1686L31.4347 26.164L32.3461 26.0705L32.3109 26.0993C32.4938 25.2884 32.6386 24.5222 32.7252 23.8262C32.8046 23.2168 32.8402 22.6038 32.8319 21.9906C32.8261 21.5838 32.7951 21.1776 32.7391 20.774C32.7225 20.626 32.699 20.5232 32.69 20.4477C32.6925 20.4155 32.6815 20.387 32.6784 20.3633C32.6749 20.356 32.6721 20.3484 32.6702 20.3407Z" fill="#263238"/>
<path d="M31.8497 31.8418L31.9847 30.0525C31.9847 30.0525 32.044 29.6147 31.6204 29.6818C31.1967 29.749 31.2228 30.4519 31.2228 30.4519C31.2228 30.4519 30.9389 33.168 31.1228 33.1549C31.3067 33.1418 31.393 32.9364 31.393 32.9364L31.4719 31.8909L31.8497 31.8418Z" fill="#F9EABA"/>
<path d="M33.6485 32.0051C32.909 32.1035 32.1693 32.0935 31.4356 31.9749C32.1751 31.8765 32.9148 31.8865 33.6485 32.0051Z" fill="#263238"/>
<path d="M38.3232 23.6755C38.2469 23.6998 38.1687 23.7195 38.0893 23.7344C37.8771 23.7875 37.6686 23.8516 37.4649 23.9262C36.7964 24.1784 36.2031 24.5622 35.7313 25.0478C35.5973 25.1843 35.4774 25.3308 35.3729 25.4858C35.2806 25.6331 35.2031 25.7871 35.1414 25.9462C35.035 26.217 34.9564 26.4955 34.9065 26.7784C34.8635 27.0189 34.8426 27.2139 34.8291 27.3596C34.8294 27.4308 34.8236 27.5019 34.8118 27.5724C34.7997 27.5014 34.7965 27.4295 34.8025 27.3579C34.8068 27.1631 34.8227 26.9685 34.8499 26.775C34.8898 26.4873 34.9621 26.2037 35.0659 25.9284C35.1269 25.7647 35.2047 25.6062 35.2984 25.4549C35.407 25.2956 35.5312 25.1449 35.6696 25.0044C36.148 24.5084 36.7576 24.1222 37.4453 23.8796C37.6523 23.8075 37.8656 23.75 38.0831 23.7077C38.1617 23.6899 38.2422 23.6791 38.3232 23.6755Z" fill="#263238"/>
<path d="M25.9322 43.3309C25.9367 43.3023 25.939 43.2736 25.9391 43.2448C25.9439 43.1835 25.9355 43.098 25.9319 42.9952C25.9243 42.772 25.9124 42.4532 25.8968 42.0537C25.8584 41.2409 25.8057 40.0961 25.7443 38.7427L25.7058 38.7801L29.513 38.7125L35.9444 38.5802C36.5942 38.5631 37.2348 38.7104 37.788 39.0041C37.9372 39.0843 38.0797 39.1736 38.2145 39.2712L38.3181 39.3503C38.329 39.3597 38.3415 39.3678 38.355 39.3743C38.1942 39.2206 38.0091 39.0874 37.8052 38.9787C37.2512 38.6705 36.6031 38.5129 35.9436 38.526L29.5056 38.6359L25.6979 38.7093L25.6576 38.7071L25.6548 38.7421C25.7299 40.0934 25.7941 41.2417 25.8379 42.0518L25.8983 42.9918C25.9052 43.0963 25.9122 43.1788 25.9157 43.2405C25.9183 43.271 25.9238 43.3012 25.9322 43.3309Z" fill="#263238"/>
<path d="M28.6664 43.6197C28.688 43.5576 28.7026 43.4938 28.7099 43.4292C28.732 43.3053 28.7582 43.1242 28.7842 42.9004C28.9155 41.7342 28.8817 40.5592 28.6838 39.4025C28.6446 39.1815 28.609 39.0033 28.5779 38.8797C28.5676 38.8153 28.5492 38.7523 28.523 38.6917C28.523 38.7567 28.53 38.8216 28.5442 38.8854C28.5659 39.0247 28.5916 39.201 28.6233 39.4099C28.6849 39.8541 28.751 40.4692 28.7706 41.1511C28.7903 41.833 28.7596 42.4506 28.7246 42.896C28.7094 43.1085 28.6885 43.2855 28.6769 43.4246C28.6655 43.4892 28.662 43.5546 28.6664 43.6197Z" fill="#263238"/>
<path d="M27.3293 42.1122C27.3293 42.1122 27.2891 42.0907 27.2072 42.0858C27.0892 42.0824 26.9729 42.1112 26.8745 42.1682C26.7983 42.2094 26.7351 42.2665 26.6906 42.3343C26.646 42.4021 26.6215 42.4785 26.6194 42.5565C26.6175 42.6529 26.6468 42.7478 26.704 42.8304C26.7611 42.913 26.8438 42.9799 26.9425 43.0235C27.0443 43.0612 27.1564 43.0729 27.2657 43.0572C27.375 43.0415 27.4769 42.999 27.5596 42.9348C27.6278 42.8822 27.6784 42.8144 27.7058 42.7388C27.7333 42.6632 27.7367 42.5825 27.7156 42.5054C27.6942 42.404 27.6336 42.3121 27.5436 42.245C27.5132 42.2181 27.4744 42.1995 27.4321 42.1915C27.4315 42.1988 27.467 42.217 27.5201 42.2655C27.5927 42.3349 27.6395 42.4219 27.6544 42.5149C27.6681 42.5812 27.6617 42.6495 27.6359 42.7131C27.6101 42.7767 27.5657 42.8334 27.5072 42.8775C27.4357 42.9316 27.3482 42.967 27.2548 42.9797C27.1613 42.9925 27.0656 42.982 26.9788 42.9496C26.8952 42.9118 26.8251 42.8549 26.7761 42.7849C26.727 42.7149 26.7008 42.6346 26.7003 42.5526C26.7005 42.4849 26.7194 42.4182 26.7556 42.3582C26.7918 42.2982 26.8442 42.2468 26.9082 42.2082C26.9962 42.1527 27.1001 42.1194 27.2084 42.1122C27.2487 42.114 27.289 42.114 27.3293 42.1122Z" fill="#263238"/>
<path d="M31.356 19.4382L31.4053 19.469L31.5649 19.5594L32.1533 19.9017L34.4292 21.1973L38.2978 22.9083C39.1001 23.25 39.7608 23.8026 40.1882 24.4895C40.4241 24.8567 40.6066 25.2485 40.7315 25.6556C40.8707 26.0823 40.9544 26.5215 40.981 26.9649C41.4941 29.7808 42.0737 33.0125 42.6121 36.444C42.7191 37.1833 42.8271 37.9109 42.9357 38.6312C42.9628 38.8117 42.9816 38.9916 43.0039 39.1703C43.0261 39.349 43.0501 39.5263 43.0608 39.7043C43.0895 40.0554 43.0815 40.4081 43.0371 40.758C42.9538 41.4403 42.7198 42.1019 42.3483 42.706C42.1684 42.9977 41.9456 43.2674 41.6855 43.5081C41.4293 43.7401 41.1316 43.9338 40.8042 44.0814C40.1668 44.3654 39.447 44.4745 38.7385 44.3947L36.7212 44.2346C35.4209 44.1271 34.2091 44.0193 33.1036 43.9179L27.8671 43.4289L26.4438 43.2935L26.0725 43.2605L25.9462 43.2527L26.0718 43.2692L26.4407 43.3109L27.8629 43.4594C29.0982 43.5863 30.8852 43.766 33.0958 43.9731C34.201 44.0774 35.4159 44.1884 36.7143 44.2986L38.733 44.4632C39.4557 44.5451 40.1901 44.4343 40.8408 44.1452C41.1763 43.9939 41.4821 43.7964 41.7464 43.5602C42.0107 43.3143 42.2377 43.0395 42.4221 42.7428C42.7998 42.1305 43.0379 41.4596 43.1232 40.7677C43.1688 40.4135 43.177 40.0563 43.1479 39.7009C43.1375 39.52 43.1118 39.3425 43.0912 39.1639C43.0706 38.9854 43.0503 38.8039 43.023 38.6249C42.9279 37.9039 42.8201 37.1733 42.6995 36.4361C42.1611 33.0061 41.5783 29.7727 41.0585 26.9565C41.0327 26.5103 40.9498 26.0682 40.8114 25.6385C40.6846 25.2265 40.4985 24.8305 40.2574 24.46C39.8219 23.7638 39.1492 23.2046 38.3333 22.8607L34.4541 21.1578L32.1668 19.8791L31.5624 19.549L31.4023 19.4645L31.356 19.4382Z" fill="#263238"/>
<path d="M16.1483 30.4186L20.0024 30.6171L19.9223 31.6715L16.0682 31.4731L16.1483 30.4186Z" fill="#263238"/>
<path d="M1.85155 31.5663L13.6895 44.1121L26.154 44.8857L26.4892 44.4114L15.1216 32.1704L1.85155 31.5663Z" fill="#263238"/>
<path d="M13.9166 32.1224C13.9166 32.1224 13.0917 32.0725 12.8258 32.3081C12.5158 32.5907 11.9113 33.233 12.97 35.0249C13.3914 35.7424 15.5411 38.2528 16.3066 40.738C17.0219 43.0577 16.5501 43.7812 16.5501 43.7812L7.63319 42.9917L7.48912 42.7006C7.48912 42.7006 4.35144 33.2937 5.52258 31.6089C6.06179 30.8412 14.0041 31.8322 13.9166 32.1224Z" fill="#E0E0E0"/>
<path d="M6.13797 42.6771L15.7659 43.323C16.0542 41.2084 15.3331 39.6169 14.2214 37.7212C13.7963 36.9954 13.1856 36.3594 12.7623 35.6323C12.3166 34.8664 12.0888 34.0185 12.0978 33.1595C12.1005 32.8175 12.1556 32.4509 12.4168 32.196C12.6781 31.9412 13.5393 31.978 13.8996 32.1385C13.5047 31.8518 13.0267 31.6649 12.5177 31.5982C11.7442 31.4949 5.37225 31.1519 4.18679 31.0898C3.89982 31.0835 3.61292 31.1066 3.33201 31.1586C2.43688 31.4954 2.17614 32.5077 2.23828 33.2513C2.29694 33.9552 2.74033 34.6426 3.30449 35.4162C3.46871 35.6379 3.61842 35.8675 3.7529 36.1039C4.32977 37.1341 5.91886 40.0219 6.16701 41.0003C6.28072 41.5555 6.27086 42.1247 6.13797 42.6771Z" fill="#FAFAFA"/>
<path d="M6.13933 42.6597L8.45729 42.8144L12.8857 43.1114L14.7453 43.2372L15.3678 43.2744C15.4826 43.2922 15.5993 43.2992 15.7159 43.2952C15.7242 43.2958 15.7627 43.2981 15.7677 43.2984C15.7728 43.2987 15.7671 43.1419 15.7701 43.1245C15.7761 43.0517 15.782 42.979 15.7881 42.9048C15.7997 42.7622 15.8063 42.6193 15.8079 42.4761C15.813 41.9285 15.7481 41.3822 15.6144 40.8474C15.3424 39.7696 14.8082 38.7521 14.2351 37.7792C13.9206 37.2427 13.5165 36.7551 13.1472 36.2519C12.7901 35.7751 12.512 35.257 12.3209 34.7126C12.1343 34.1715 12.0502 33.6075 12.072 33.0425C12.0897 32.681 12.1902 32.1898 12.6402 32.053C12.8456 31.9974 13.0615 31.9775 13.2756 31.9945C13.4178 32.003 13.7488 32.0067 13.8639 32.0999C13.8972 32.1252 13.8781 32.1329 13.8534 32.1255C13.8336 32.1149 13.8154 32.102 13.7994 32.0872C13.7372 32.0455 13.6716 32.005 13.6056 31.9689C13.3804 31.8445 13.1365 31.7478 12.8807 31.6814C12.3702 31.5499 11.8055 31.5454 11.2771 31.5094C9.62814 31.3991 7.97559 31.312 6.32398 31.2132L4.4172 31.1094C4.11735 31.09 3.81595 31.097 3.51758 31.1302C3.0081 31.1919 2.63749 31.6127 2.45763 32.0041C2.26569 32.4313 2.19915 32.8932 2.26402 33.3479C2.34483 33.9245 2.66309 34.4553 2.99782 34.949C3.29786 35.3939 3.61415 35.8251 3.87548 36.2911C4.05413 36.6162 4.23291 36.9398 4.40977 37.2662C4.83217 38.0459 5.24574 38.831 5.62453 39.63C5.95042 40.3148 6.2634 40.9929 6.26078 41.7473C6.26215 42.0604 6.22484 42.3729 6.1495 42.6793C6.1476 42.7026 6.10325 42.6897 6.11017 42.6667C6.29809 41.9171 6.23627 41.1368 5.93196 40.4175C5.61486 39.6455 5.22546 38.8941 4.83379 38.1498C4.47663 37.4705 4.11015 36.7955 3.73434 36.1248C3.18668 35.1489 2.24942 34.2697 2.20256 33.1322C2.17474 32.4214 2.44695 31.3923 3.32443 31.1274C3.62794 31.0565 3.94385 31.0353 4.25606 31.0647L4.95217 31.1063C6.57437 31.1946 8.19812 31.2844 9.81948 31.3828C10.5189 31.4246 11.2184 31.4665 11.9169 31.5199C12.5503 31.568 13.1533 31.6582 13.6956 31.9787C13.77 32.0214 13.8409 32.0686 13.9077 32.12C13.9219 32.1311 13.9047 32.1564 13.8834 32.1493C13.5222 32.0154 13.1207 31.9862 12.7384 32.0662C12.2245 32.1817 12.1233 32.702 12.1107 33.1033C12.0901 34.0659 12.367 35.0151 12.9124 35.8519C13.1783 36.2626 13.4932 36.6484 13.7853 37.046C14.0596 37.4257 14.3083 37.819 14.5301 38.2237C14.9591 38.9572 15.3042 39.7257 15.5605 40.5181C15.8355 41.4328 15.9113 42.3845 15.7841 43.3242C15.7837 43.3292 15.781 43.3339 15.7767 43.3372C15.7723 43.3405 15.7666 43.3422 15.7608 43.3418L12.5081 43.1239L7.32374 42.7759L6.13469 42.696C6.13136 42.6965 6.12795 42.6963 6.12473 42.6954C6.12151 42.6946 6.11856 42.6931 6.11612 42.6911C6.11367 42.6891 6.11179 42.6866 6.11063 42.6838C6.10948 42.6811 6.10907 42.6781 6.10944 42.6752C6.10981 42.6723 6.11095 42.6695 6.11278 42.667C6.1146 42.6646 6.11706 42.6625 6.11996 42.661C6.12285 42.6595 6.12611 42.6586 6.12947 42.6584C6.13283 42.6581 6.1362 42.6586 6.13933 42.6597Z" fill="#263238"/>
<path d="M6.87749 41.3469C6.87634 41.4064 8.59053 41.3865 10.7077 41.3081C12.8249 41.2296 14.5408 41.1224 14.5419 41.063C14.5431 41.0035 12.8272 41.0234 10.7117 41.1018C8.59622 41.1802 6.87857 41.2914 6.87749 41.3469Z" fill="#263238"/>
<path d="M6.7398 40.2251C6.73872 40.2807 8.45283 40.2647 10.57 40.1862C12.6872 40.1078 14.4032 39.9967 14.4042 39.9411C14.4053 39.8856 12.6895 39.9016 10.574 39.98C8.45853 40.0584 6.74095 40.1656 6.7398 40.2251Z" fill="#263238"/>
<path d="M5.79155 38.9773C5.79047 39.0328 7.50628 39.0168 9.62178 38.9384C11.7373 38.8601 13.4549 38.7489 13.456 38.6933C13.4571 38.6378 11.743 38.6538 9.62578 38.7322C7.50859 38.8106 5.79271 38.9178 5.79155 38.9773Z" fill="#263238"/>
<path d="M5.2332 37.8535C5.23212 37.909 6.94624 37.893 9.06343 37.8146C11.1806 37.7362 12.8966 37.625 12.8977 37.5695C12.8987 37.514 11.1829 37.53 9.06743 37.6084C6.95193 37.6867 5.23428 37.7979 5.2332 37.8535Z" fill="#263238"/>
<path d="M4.87993 36.8346C4.87885 36.8901 6.59296 36.8742 8.70845 36.7958C10.8239 36.7174 12.5416 36.6062 12.5427 36.5507C12.5438 36.4952 10.8296 36.5111 8.71246 36.5896C6.59528 36.668 4.88109 36.7751 4.87993 36.8346Z" fill="#263238"/>
<path d="M3.92974 35.4691C3.92858 35.5286 5.64277 35.5087 7.75996 35.4303C9.87715 35.3518 11.593 35.2447 11.5942 35.1852C11.5953 35.1257 9.87946 35.1457 7.76397 35.224C5.64847 35.3024 3.93082 35.4136 3.92974 35.4691Z" fill="#263238"/>
<path d="M3.03643 34.164C3.03535 34.2195 4.74946 34.2036 6.86665 34.1251C8.98384 34.0467 10.6998 33.9355 10.7009 33.88C10.702 33.8245 8.98615 33.8405 6.87065 33.9189C4.75516 33.9973 3.0375 34.1085 3.03643 34.164Z" fill="#263238"/>
<path d="M3.1895 32.9773C3.18843 33.0328 4.90255 33.0168 7.01806 32.9384C9.13356 32.86 10.8563 32.7486 10.8574 32.6931C10.8585 32.6376 9.14433 32.6535 7.02713 32.732C4.90993 32.8105 3.19066 32.9178 3.1895 32.9773Z" fill="#263238"/>
<path d="M15.1957 32.1436C15.1763 32.1512 15.158 32.161 15.1413 32.1725L14.9825 32.2668L14.3747 32.6397L14.3587 32.6504L14.371 32.6643C15.3246 33.7123 17.3944 35.9541 19.7971 38.5408C21.4513 40.3625 23.0604 41.9358 24.2252 43.0697C24.8084 43.6374 25.2833 44.0918 25.6135 44.4058L25.9972 44.7654L26.0988 44.8564L26.135 44.8864C26.135 44.8864 26.1259 44.8741 26.1059 44.8524L26.0098 44.7545L25.6387 44.3853L24.27 43.0343C23.1179 41.8895 21.519 40.3154 19.8648 38.4922C17.4622 35.9055 15.378 33.6746 14.4013 32.6427L14.3993 32.6675L14.9982 32.2809L15.1507 32.1804C15.1672 32.1696 15.1823 32.1572 15.1957 32.1436Z" fill="#455A64"/>
<path d="M25.6185 39.3001L23.7967 39.1936C23.7967 39.1936 22.6407 38.1905 22.368 38.1029C21.7949 37.9159 20.2964 37.6675 20.2964 37.6675L21.2493 38.6998C21.4711 38.9378 21.8942 39.1658 21.6342 39.1506L19.7385 39.0398C19.7385 39.0398 17.8662 38.1205 17.5657 38.2506C17.3141 38.3601 17.2121 38.5793 17.4335 38.9051C17.6549 39.2308 19.2946 40.0664 19.4863 40.1346L20.0298 40.3126L19.4963 40.4276L17.0859 39.5338C16.9285 39.4998 16.7073 39.4635 16.6285 39.5407C16.5954 39.5668 16.5686 39.5982 16.5497 39.6333C16.5307 39.6684 16.52 39.7064 16.5181 39.745C16.5162 39.7837 16.5232 39.8223 16.5387 39.8585C16.5542 39.8948 16.5779 39.928 16.6083 39.9562C16.9382 40.252 17.2909 40.5281 17.664 40.7825C17.664 40.7825 17.2289 41.2628 17.5354 41.5366C17.8419 41.8103 18.7262 42.6295 18.7262 42.6295C18.7262 42.6295 18.7908 43.0602 19.0683 43.2752C19.3459 43.4902 22.5753 43.679 22.8085 43.6926C23.0416 43.7063 24.3962 43.132 24.3962 43.132L25.8212 43.1231L25.6185 39.3001Z" fill="#B78876"/>
<path d="M19.7584 41.7253C19.6414 41.7516 19.5199 41.7593 19.4 41.748C19.2678 41.7415 19.1382 41.714 19.0177 41.6667C18.8732 41.6073 18.7367 41.5343 18.6107 41.4491C18.3422 41.2743 18.103 41.1144 17.9316 40.9949C17.8339 40.9362 17.744 40.8683 17.6637 40.7922C17.77 40.8373 17.8705 40.8921 17.9635 40.9555C18.1442 41.0638 18.3888 41.2197 18.6573 41.393C18.7786 41.4761 18.9094 41.5482 19.0476 41.6082C19.1603 41.6552 19.2813 41.6857 19.4056 41.6984C19.6202 41.7206 19.7592 41.715 19.7584 41.7253Z" fill="#AA6550"/>
<path d="M19.8437 42.79C19.7755 42.851 19.6843 42.8887 19.5869 42.8961C19.353 42.9282 19.1144 42.8803 18.9213 42.7625C18.732 42.6545 18.5587 42.5267 18.4054 42.3819C18.2891 42.2713 18.2276 42.1945 18.2364 42.1891C18.468 42.3724 18.7105 42.545 18.963 42.7061C19.141 42.815 19.3577 42.8659 19.5753 42.85C19.6667 42.8375 19.7566 42.8174 19.8437 42.79Z" fill="#AA6550"/>
<path d="M20.925 40.5024C20.7511 40.5131 20.5769 40.4924 20.4127 40.4417C20.2418 40.4132 20.0795 40.3538 19.9357 40.2672C20.106 40.289 20.2735 40.3249 20.4362 40.3744C20.6036 40.4025 20.7674 40.4454 20.925 40.5024Z" fill="#AA6550"/>
<path d="M35.6342 9.44841C35.9008 9.09321 36.2455 8.78777 36.6481 8.54985C37.0507 8.31193 37.5032 8.14627 37.9795 8.06251C38.4557 7.97874 38.946 7.97854 39.422 8.06191C39.8981 8.14528 40.3502 8.31057 40.7523 8.54816C41.4407 8.95613 41.9855 9.64815 41.8778 10.3736C41.7771 11.0556 41.149 11.5721 40.5595 12.0267C41.4099 12.3991 41.769 13.3961 41.4182 14.1682C41.0673 14.9403 40.1189 15.4432 39.1697 15.4615C38.2206 15.4798 37.2984 15.0634 36.664 14.445C36.0457 13.8086 35.6406 13.0351 35.4931 12.2098" fill="#263238"/>
<path d="M38.4555 11.3805C38.6037 11.4477 38.7635 11.4933 38.9287 11.5155C39.3827 11.5808 39.8491 11.5251 40.2666 11.3559C40.5564 11.2421 40.8164 11.0781 41.0306 10.8738C41.2761 10.6367 41.4512 10.351 41.5406 10.0418C41.6426 9.68823 41.648 9.31902 41.5564 8.96369C41.4648 8.60837 41.2787 8.27679 41.013 7.99553C40.7385 7.72215 40.4013 7.50166 40.023 7.34811C39.6447 7.19456 39.2336 7.11133 38.8159 7.10373C38.1283 7.07455 37.4525 7.27037 36.9217 7.65261C36.5697 7.91562 36.345 8.28451 36.2928 8.68515C36.28 8.79246 36.283 8.90074 36.3018 9.00733C36.3072 9.0442 36.3185 9.07119 36.3221 9.08895C36.3257 9.10671 36.3316 9.11584 36.3333 9.11594C36.3113 8.9738 36.3089 8.82985 36.3262 8.68715C36.3908 8.2994 36.6171 7.94556 36.9621 7.69304C37.4835 7.32723 38.1419 7.14215 38.8102 7.17357C39.2159 7.18285 39.6148 7.26496 39.9819 7.41475C40.3491 7.56454 40.6764 7.77877 40.9435 8.044C41.1996 8.31683 41.379 8.63782 41.4677 8.98161C41.5564 9.3254 41.5519 9.68257 41.4546 10.0249C41.3712 10.3237 41.2049 10.6004 40.9702 10.8307C40.7168 11.0732 40.4002 11.2592 40.0471 11.3732C39.694 11.4871 39.3147 11.5257 38.9413 11.4856C38.7767 11.4603 38.6144 11.4252 38.4555 11.3805Z" fill="#263238"/>
<path d="M37.3432 11.9864C37.3765 12.0153 37.4141 12.0398 37.4549 12.0593C37.5588 12.12 37.6685 12.1719 37.7828 12.2146C37.9542 12.2793 38.1322 12.3287 38.3145 12.3622C38.539 12.401 38.7676 12.4187 38.9967 12.415C39.2268 12.4094 39.4559 12.3812 39.68 12.3307C39.8615 12.2887 40.0385 12.2313 40.2085 12.1593C40.3229 12.1109 40.4328 12.0541 40.5371 11.9894C40.6099 11.9419 40.6474 11.9143 40.6443 11.9096C40.6412 11.9048 40.4688 11.9971 40.1834 12.1073C40.0152 12.1707 39.8417 12.2215 39.6647 12.2591C39.2281 12.3503 38.7769 12.3606 38.3382 12.2893C38.1596 12.26 37.9842 12.2174 37.8136 12.1621C37.5189 12.0654 37.3526 11.973 37.3432 11.9864Z" fill="#455A64"/>
<path d="M41.8938 10.4714C41.8862 10.4078 41.8679 10.3458 41.8394 10.2874C41.7732 10.1212 41.6604 9.97332 41.5117 9.85758C41.2771 9.70096 41 9.60215 40.7079 9.57095C40.3564 9.5277 39.9996 9.5257 39.6466 9.56501C39.0062 9.62547 38.3812 9.7839 37.7989 10.0333C37.6234 10.1089 37.4532 10.194 37.2893 10.2882C37.2251 10.3189 37.1655 10.3566 37.1118 10.4005C37.179 10.378 37.2431 10.3487 37.3028 10.3131C37.4238 10.2554 37.5989 10.1763 37.8274 10.0845C38.4088 9.85289 39.0265 9.70377 39.6579 9.64262C40.003 9.60468 40.3517 9.60478 40.6959 9.6429C40.9759 9.66894 41.2432 9.75774 41.473 9.90103C41.6196 10.0073 41.7346 10.144 41.8081 10.2995C41.8334 10.3581 41.862 10.4154 41.8938 10.4714Z" fill="#455A64"/>
<path d="M36.5463 13.1356C36.5463 13.1356 36.545 13.1532 36.566 13.1868C36.5871 13.2205 36.6108 13.2645 36.6468 13.324C36.7563 13.4886 36.8876 13.6413 37.0381 13.7789C37.2627 13.9831 37.5253 14.1528 37.8149 14.2808C38.172 14.4376 38.5633 14.5272 38.9637 14.5438C39.3634 14.5638 39.7639 14.509 40.1385 14.3829C40.4441 14.2777 40.7189 14.1134 40.942 13.9025C41.0919 13.7596 41.2019 13.5885 41.2631 13.4026C41.2799 13.3525 41.2912 13.3012 41.2969 13.2493C41.2997 13.214 41.301 13.1963 41.301 13.1963C41.301 13.1963 41.2852 13.2694 41.235 13.3937C41.1623 13.5699 41.0478 13.7309 40.8991 13.8663C40.6775 14.0647 40.4092 14.2189 40.113 14.318C39.748 14.4365 39.3591 14.4874 38.9713 14.4674C38.5833 14.4506 38.2037 14.3658 37.8552 14.2179C37.5706 14.0943 37.3112 13.9309 37.0872 13.7343C36.8827 13.5523 36.7014 13.3516 36.5463 13.1356Z" fill="#455A64"/>
<path d="M36.1753 13.8772C36.2243 13.9498 36.2812 14.0183 36.3451 14.0816C36.4601 14.2083 36.6316 14.3908 36.8619 14.5986C36.977 14.7033 37.1085 14.8147 37.255 14.9284C37.7625 15.352 38.4432 15.5841 39.1492 15.5744C39.6394 15.5893 40.1239 15.4739 40.5377 15.2435C40.8638 15.0441 41.13 14.7796 41.3137 14.4725C41.4393 14.2679 41.5205 14.0452 41.5533 13.8155C41.5631 13.7531 41.5681 13.6901 41.5682 13.6272C41.5688 13.6054 41.5665 13.5836 41.5615 13.5623C41.5561 13.5838 41.5543 13.606 41.5563 13.628C41.5523 13.6895 41.5435 13.7508 41.53 13.8113C41.4866 14.0347 41.3992 14.2502 41.2717 14.4482C41.0853 14.7425 40.8221 14.9952 40.5034 15.1859C40.1018 15.4042 39.6345 15.5132 39.162 15.4988C38.6891 15.497 38.2246 15.3937 37.81 15.1981C37.6323 15.1067 37.4663 14.9992 37.3148 14.8774C37.168 14.7666 37.0363 14.6581 36.9189 14.5622C36.6847 14.36 36.5058 14.1859 36.3819 14.0646C36.3174 13.9986 36.2484 13.9361 36.1753 13.8772Z" fill="#455A64"/>
<path d="M35.0812 9.34451L34.825 9.49735C34.9524 9.14172 35.4323 8.94835 35.8518 9.00625C36.0596 9.04829 36.2539 9.13069 36.4204 9.2474C36.5869 9.36411 36.7215 9.51215 36.8141 9.68062C36.9964 10.0192 37.1055 10.3846 37.1359 10.7583C37.2158 11.3787 37.2276 12.0359 36.9038 12.5906C36.5799 13.1452 35.824 13.5503 35.1512 13.3626C34.4784 13.1749 34.1479 12.4937 34.0945 11.875C34.0586 11.417 34.1274 10.9573 34.2969 10.5227C34.4663 10.0882 34.733 9.68758 35.0812 9.34451Z" fill="#F9EABA"/>
<path d="M35.824 12.1833C36.0193 12.3029 36.2534 12.3601 36.4901 12.3461C36.6548 12.3468 36.8188 12.3215 36.9747 12.2714C37.101 12.2326 37.1525 12.1504 37.129 12.1478C37.0754 12.1796 37.0165 12.2034 36.9547 12.2182C36.8017 12.2498 36.6455 12.2658 36.4889 12.2661C36.2652 12.2526 36.0431 12.2249 35.824 12.1833Z" fill="#263238"/>
<path d="M35.5561 11.1027C35.8228 11.1552 36.0944 11.1708 36.366 11.1492C36.6365 11.1655 36.9086 11.1452 37.1774 11.0887C36.9105 11.0386 36.639 11.023 36.3675 11.0422C36.0969 11.0283 35.825 11.0486 35.5561 11.1027Z" fill="#263238"/>
<path d="M35.9067 9.93965C35.9049 9.96745 36.1567 9.94983 36.4526 9.92909C36.5775 9.924 36.7022 9.93626 36.8228 9.9655C36.9145 9.98891 36.9688 10.0141 36.9763 10.0029C36.9837 9.99173 36.939 9.94891 36.8452 9.90737C36.7211 9.85956 36.5874 9.83791 36.453 9.84384C36.2669 9.84183 36.0815 9.87436 35.9067 9.93965Z" fill="#263238"/>
<path d="M34.3451 6.92491C34.4147 6.31797 33.803 5.80809 33.1683 5.53951C32.5336 5.27093 31.8144 5.15084 31.2591 4.77587C30.7676 4.44414 30.459 3.95368 30.0548 3.54234C29.5546 3.03626 28.9081 2.65517 28.1814 2.43819C27.4548 2.22122 26.6743 2.17617 25.9201 2.30767C25.1658 2.43917 24.465 2.74249 23.8894 3.18648C23.3139 3.63048 22.8845 4.19916 22.6453 4.83415C22.3229 5.69217 22.411 6.72068 23.1511 7.34927C24.0114 8.0727 25.3805 8.00471 26.5685 7.86605C27.7565 7.7274 29.1002 7.59943 30.0299 8.25534C30.5903 8.65108 30.8811 9.25744 31.1988 9.82153C31.5165 10.3856 31.9222 10.9652 32.5875 11.2092C33.2528 11.4533 34.2077 11.1591 34.2856 10.5322" fill="#263238"/>
<path d="M34.3141 7.29135C34.1954 7.79902 34.5828 8.28156 34.9763 8.66794C35.3698 9.05431 35.815 9.46574 35.8486 9.9811C35.8867 10.5845 35.3389 11.1424 35.4364 11.7391C35.4979 12.1187 35.807 12.4269 35.9817 12.7781C36.2123 13.2832 36.2115 13.8464 35.9793 14.3517C35.7701 14.8568 35.3922 15.9895 34.9483 16.365C33.7212 17.4027 31.8345 18.2486 30.1457 18.4805C28.4569 18.7124 26.7314 18.6115 25.037 18.4175C23.6505 18.2595 22.0444 18.2185 21.0186 16.4807C20.4889 15.5801 20.2833 14.4138 20.0432 13.4238C19.8373 12.5705 19.6712 11.6611 20.0268 10.8444C20.2336 10.3684 20.6031 9.9577 20.8099 9.48165C21.065 8.88712 21.0429 8.23204 21.1782 7.60252C21.3237 6.92391 21.6531 6.28502 22.139 5.73896C22.625 5.19289 23.2534 4.75544 23.9721 4.46296C24.6908 4.17047 25.479 4.03141 26.2712 4.05733C27.0634 4.08325 27.8366 4.2734 28.5267 4.61198" fill="#263238"/>
<path d="M30.9624 21.0747C30.9624 21.0747 30.9597 21.1117 30.9506 21.1291L30.9624 21.0747Z" fill="#B78876"/>
<path d="M21.8229 8.65233C22.0927 6.91637 23.5847 4.85779 25.5439 5.16688L31.5972 6.92909C31.8841 6.97416 32.1413 7.11247 32.3176 7.31664C32.494 7.52082 32.5767 7.77595 32.5495 8.03153L30.8413 20.7897C30.8143 21.0066 30.7408 21.2171 30.6247 21.41C30.0957 22.2693 28.3919 24.4337 25.1635 23.318C24.3725 23.0452 24.0657 22.2434 23.971 21.4339C23.9786 21.3391 23.9407 21.2517 23.9463 21.1611C23.9149 20.5593 23.9552 19.9563 24.0664 19.3617C24.14 18.3045 24.1766 17.8711 24.1757 17.8814C24.1749 17.8916 21.6747 17.3514 21.3904 14.4098C21.2434 12.9475 21.5241 10.5816 21.8229 8.65233Z" fill="#B78876"/>
<path d="M22.5462 10.6214C22.537 10.7183 22.5716 10.8144 22.6428 10.8891C22.714 10.9639 22.816 11.0114 22.9271 11.0215C22.9812 11.0287 23.0365 11.0265 23.0896 11.0148C23.1427 11.0031 23.1926 10.9823 23.2363 10.9535C23.28 10.9248 23.3167 10.8887 23.3441 10.8474C23.3716 10.8062 23.3892 10.7606 23.396 10.7133C23.4053 10.6167 23.3708 10.5208 23.3 10.4461C23.2292 10.3714 23.1276 10.3237 23.0168 10.3133C22.9626 10.3061 22.9073 10.3083 22.8541 10.32C22.8009 10.3317 22.7509 10.3525 22.707 10.3812C22.6632 10.4099 22.6264 10.4459 22.5987 10.4872C22.5711 10.5285 22.5533 10.5741 22.5462 10.6214Z" fill="#263238"/>
<path d="M22.1686 9.94313C22.2189 9.99504 22.562 9.79805 23.0241 9.82257C23.4861 9.84709 23.8115 10.0714 23.8658 10.0232C23.8928 10.0021 23.8438 9.90982 23.7041 9.80705C23.5128 9.6739 23.2791 9.5964 23.0349 9.58509C22.7929 9.57129 22.5514 9.62641 22.346 9.74239C22.1989 9.83087 22.1432 9.91941 22.1686 9.94313Z" fill="#263238"/>
<path d="M27.1464 10.8698C27.1367 10.9665 27.1709 11.0626 27.2418 11.1374C27.3127 11.2122 27.4146 11.2598 27.5255 11.2699C27.5796 11.2771 27.6349 11.2748 27.688 11.2631C27.7411 11.2514 27.791 11.2306 27.8347 11.2019C27.8784 11.1731 27.9151 11.137 27.9425 11.0958C27.9699 11.0545 27.9876 11.0089 27.9944 10.9616C28.0041 10.8649 27.9698 10.7689 27.8989 10.6941C27.828 10.6193 27.7261 10.5717 27.6152 10.5616C27.5611 10.5544 27.5059 10.5567 27.4528 10.5684C27.3997 10.58 27.3498 10.6009 27.3061 10.6296C27.2623 10.6584 27.2257 10.6944 27.1983 10.7357C27.1708 10.777 27.1532 10.8226 27.1464 10.8698Z" fill="#263238"/>
<path d="M26.7311 10.269C26.7815 10.3209 27.1246 10.1239 27.5865 10.1499C28.0485 10.1759 28.3741 10.3972 28.4283 10.3505C28.4553 10.3294 28.4081 10.2357 28.2752 10.1333C28.0833 9.99994 27.8491 9.9224 27.6043 9.91127C27.3623 9.8981 27.121 9.95318 26.9153 10.0686C26.761 10.1627 26.7055 10.2497 26.7311 10.269Z" fill="#263238"/>
<path d="M24.8024 13.1583C24.8042 13.1349 24.5273 13.0741 24.0747 12.9938C23.96 12.9766 23.8528 12.9495 23.8386 12.8782C23.8377 12.7717 23.8731 12.6674 23.9401 12.5789C24.0703 12.3371 24.2047 12.0839 24.3467 11.8179C24.9131 10.7347 25.3317 9.84221 25.2838 9.81875C25.236 9.7953 24.7345 10.6666 24.1686 11.744C24.0314 12.0117 23.9007 12.2672 23.7766 12.5103C23.693 12.629 23.6601 12.7702 23.6837 12.9085C23.6978 12.9451 23.7212 12.9783 23.7521 13.0056C23.7829 13.0329 23.8205 13.0536 23.8618 13.0661C23.9245 13.0858 23.9898 13.0982 24.0561 13.1028C24.5138 13.1614 24.799 13.1801 24.8024 13.1583Z" fill="#263238"/>
<path d="M24.1746 17.9121C25.7509 18.0198 27.3331 17.7459 28.7451 17.1208C28.7451 17.1208 27.4516 19.0731 24.1161 18.6088L24.1746 17.9121Z" fill="#AA6550"/>
<path d="M24.9645 14.1335C25.0608 14.0435 25.1817 13.9759 25.3159 13.937C25.4502 13.8981 25.5935 13.8891 25.7326 13.911C25.8335 13.9252 25.9301 13.9569 26.0166 14.0042C26.1031 14.0514 26.1778 14.1133 26.2361 14.1861C26.292 14.2566 26.3216 14.3403 26.321 14.426C26.3203 14.5116 26.2895 14.5952 26.2326 14.6653C26.1523 14.7325 26.0509 14.7776 25.9412 14.7949C25.8315 14.8121 25.7185 14.8008 25.6164 14.7623C25.4044 14.6816 25.2128 14.5656 25.0525 14.4208C25.0028 14.3859 24.9616 14.3427 24.9313 14.2939C24.9165 14.2714 24.9097 14.2455 24.9118 14.2196C24.9139 14.1937 24.9248 14.1689 24.9431 14.1484" fill="#AA6550"/>
<path d="M26.1781 13.5218C26.1028 13.5174 26.0655 13.9537 25.6157 14.2296C25.1658 14.5055 24.6334 14.4314 24.625 14.4923C24.6229 14.5185 24.7371 14.5838 24.961 14.6029C25.2538 14.6247 25.5462 14.5556 25.7863 14.4079C26.0171 14.2669 26.1757 14.0534 26.2285 13.8128C26.26 13.632 26.2135 13.521 26.1781 13.5218Z" fill="#263238"/>
<path d="M26.5738 9.55283C26.611 9.66639 27.0752 9.63789 27.6171 9.72501C28.159 9.81213 28.5875 9.96496 28.6675 9.86927C28.7032 9.82344 28.6349 9.71872 28.4662 9.59847C28.2398 9.45413 27.9784 9.35733 27.7021 9.31541C27.4257 9.27349 27.1416 9.28755 26.8713 9.35653C26.6653 9.41751 26.561 9.49857 26.5738 9.55283Z" fill="#263238"/>
<path d="M22.4234 8.78269C22.4973 8.87841 22.8246 8.80353 23.2089 8.8235C23.5933 8.84346 23.9121 8.92374 23.9953 8.83174C24.0326 8.78626 23.9873 8.69204 23.8525 8.59612C23.6698 8.48131 23.4519 8.41685 23.2263 8.41094C23.0008 8.40503 22.7778 8.45793 22.5857 8.56292C22.4425 8.64291 22.3915 8.7351 22.4234 8.78269Z" fill="#263238"/>
<path d="M33.1421 16.6039C32.678 16.6556 32.2066 16.6101 31.7669 16.4709C31.3271 16.3318 30.9316 16.1031 30.6129 15.8037C30.2942 15.5043 30.0614 15.1428 29.9338 14.7489C29.8062 14.355 29.7873 13.9401 29.8788 13.5383C30.04 12.8319 30.5385 12.1315 30.3104 11.4394C30.0101 10.5247 28.6027 10.1634 28.2957 9.24832C28.1166 8.71597 28.3638 8.12324 28.1554 7.60081C27.9596 7.10845 27.4093 6.79949 26.8645 6.58753C26.3198 6.37557 25.7315 6.22541 25.2902 5.87184C24.8489 5.51828 24.6045 4.9043 24.9421 4.47527C27.399 4.88664 29.7908 5.55291 32.0669 6.45998C32.5933 6.67082 33.1453 6.91836 33.4306 7.35907C33.7272 7.82537 33.6705 8.39898 33.5986 8.93358C33.2478 11.5339 32.8969 14.1342 32.5461 16.7345" fill="#263238"/>
<path d="M32.8637 17.5828C32.8842 17.5761 32.9035 17.5669 32.9211 17.5555L33.0756 17.4669C33.2111 17.3858 33.4115 17.2677 33.6576 17.1011C33.9617 16.902 34.2428 16.6773 34.497 16.4304C34.8431 16.1026 35.0901 15.7043 35.2155 15.2719C35.3011 15.0095 35.3182 14.7336 35.2657 14.4648C35.2131 14.196 35.0922 13.941 34.9118 13.7187C34.6887 13.4924 34.4456 13.2817 34.1849 13.0885C33.9241 12.8875 33.7352 12.6248 33.6407 12.3319C33.4442 11.7239 33.6082 11.0456 33.5703 10.3389C33.5363 9.60196 33.2668 8.88841 32.7924 8.27932C32.5473 7.97121 32.2317 7.7111 31.8656 7.51545C31.5032 7.34444 31.122 7.20589 30.7278 7.10189C30.3631 6.99845 30.0278 6.82823 29.7443 6.60255C29.4776 6.37834 29.2478 6.12283 29.0614 5.84331C28.6872 5.30061 28.4241 4.72954 28.0636 4.24478C27.8945 4.00707 27.6912 3.78942 27.4586 3.5972C27.2409 3.4205 26.9889 3.27918 26.7144 3.17983C26.4804 3.08536 26.2244 3.03964 25.9667 3.04627C25.7089 3.0529 25.4563 3.11169 25.2286 3.21804C25.0666 3.31315 24.9296 3.43759 24.8271 3.58292C24.7247 3.72825 24.659 3.8911 24.6346 4.06046C24.5974 4.27359 24.6512 4.49116 24.7857 4.67155C24.8208 4.71681 24.8631 4.75737 24.9115 4.79199C24.9429 4.81733 24.9604 4.82865 24.9623 4.82584C24.9642 4.82303 24.9501 4.81046 24.9222 4.78385C24.8792 4.74563 24.8417 4.70302 24.8103 4.65695C24.6904 4.47834 24.6481 4.26779 24.6913 4.06391C24.7209 3.90494 24.7886 3.75319 24.8898 3.61856C24.991 3.48394 25.1235 3.36946 25.2786 3.2826C25.4952 3.18541 25.7345 3.13344 25.9777 3.13075C26.221 3.12806 26.4615 3.17473 26.6805 3.26709C26.942 3.36473 27.1817 3.50179 27.3889 3.67203C27.611 3.86297 27.8049 4.07749 27.9662 4.3106C28.314 4.78725 28.5722 5.35656 28.9502 5.91414C29.1418 6.20349 29.3782 6.46826 29.6526 6.70093C29.9485 6.9392 30.2988 7.1198 30.6805 7.2308C31.0644 7.33358 31.4357 7.46956 31.7887 7.63671C32.1379 7.82374 32.439 8.07196 32.6732 8.36578C33.1303 8.95471 33.3911 9.64341 33.4267 10.3551C33.4682 11.0385 33.2999 11.7283 33.5101 12.3737C33.614 12.6852 33.8171 12.9643 34.0956 13.1783C34.3528 13.3648 34.5935 13.568 34.816 13.786C34.9871 13.9959 35.1027 14.2365 35.1544 14.4904C35.2061 14.7443 35.1926 15.0051 35.1149 15.2541C34.9967 15.6734 34.7636 16.0613 34.4355 16.3841C34.1886 16.6324 33.9169 16.8608 33.6236 17.0668C33.3822 17.2366 33.1879 17.3624 33.0586 17.4497C32.9897 17.4894 32.9245 17.5339 32.8637 17.5828Z" fill="#455A64"/>
<path d="M19.6409 12.2781C19.559 12.1946 19.501 12.0949 19.4716 11.9874C19.4455 11.8389 19.4548 11.6871 19.4989 11.5418C19.5429 11.3966 19.6207 11.261 19.7274 11.1439C19.854 10.9885 20.0202 10.8371 20.1897 10.6638C20.3817 10.4834 20.5286 10.2691 20.6207 10.035C20.7078 9.77362 20.7417 9.50072 20.721 9.22901C20.7085 8.94777 20.6683 8.66046 20.65 8.3686C20.6123 7.8175 20.73 7.26651 20.9924 6.76525C21.2058 6.35577 21.5033 5.98489 21.8696 5.67154C22.1162 5.45988 22.3943 5.2791 22.6961 5.13423C22.9098 5.03117 23.0393 4.98615 23.0398 4.98031C23.0075 4.98543 22.9761 4.9944 22.9465 5.00696C22.8582 5.03622 22.7719 5.07022 22.6882 5.10879C22.3761 5.24579 22.0884 5.42282 21.8345 5.63417C21.4551 5.94735 21.1469 6.32199 20.9266 6.73777C20.6545 7.24821 20.5318 7.81097 20.57 8.37403C20.5881 8.66881 20.6298 8.95769 20.6428 9.23308C20.6648 9.49675 20.6337 9.76188 20.5509 10.0161C20.4642 10.2417 20.3253 10.4488 20.1431 10.6243C19.9769 10.7977 19.8104 10.9536 19.6833 11.1148C19.5746 11.2383 19.4973 11.3812 19.4566 11.5336C19.4159 11.686 19.4128 11.8443 19.4476 11.9977C19.4716 12.0799 19.516 12.1563 19.5774 12.2214C19.5956 12.2428 19.6169 12.2618 19.6409 12.2781Z" fill="#263238"/>
</svg>
